HIERARCHY
ROOT Pelvis
{
	OFFSET 0.000000 0.000000 0.000000
	CHANNELS 6 Xposition Yposition Zposition Xrotation Yrotation Zrotation
	JOINT LeftUpLeg_virtual
	{
		OFFSET 0.000000 0.000000 0.000000
		CHANNELS 3 Xrotation Yrotation Zrotation
		JOINT LeftUpLeg
		{
			OFFSET 18.735201 -5.666702 -4.541200
			CHANNELS 3 Xrotation Yrotation Zrotation
			JOINT LeftLeg
			{
				OFFSET -0.021200 -31.938179 0.493100
				CHANNELS 3 Xrotation Yrotation Zrotation
				JOINT LeftFoot
				{
					OFFSET 0.021200 -31.938179 -4.336299
					CHANNELS 3 Xrotation Yrotation Zrotation
					JOINT LeftToeBase
					{
						OFFSET 0.943001 -26.722000 15.023500
						CHANNELS 3 Xrotation Yrotation Zrotation
						End Site
						{
							OFFSET 0 0 0
						}
					}
				}
			}
		}
	}
	JOINT RightUpLeg_virtual
	{
		OFFSET 0.000000 0.000000 0.000000
		CHANNELS 3 Xrotation Yrotation Zrotation
		JOINT RightUpLeg
		{
			OFFSET -18.735201 -5.666702 -4.541200
			CHANNELS 3 Xrotation Yrotation Zrotation
			JOINT RightLeg
			{
				OFFSET 0.018946 -31.938133 0.493100
				CHANNELS 3 Xrotation Yrotation Zrotation
				JOINT RightFoot
				{
					OFFSET -0.018946 -31.938126 -4.336299
					CHANNELS 3 Xrotation Yrotation Zrotation
					JOINT RightToeBase
					{
						OFFSET -0.943001 -26.722004 15.023500
						CHANNELS 3 Xrotation Yrotation Zrotation
						End Site
						{
							OFFSET 0 0 0
						}
					}
				}
			}
		}
	}
	JOINT Hips_virtual
	{
		OFFSET 0.000000 0.000000 0.000000
		CHANNELS 3 Xrotation Yrotation Zrotation
		JOINT Hips
		{
			OFFSET -0.000000 -0.000000 -0.000000
			CHANNELS 3 Xrotation Yrotation Zrotation
			JOINT Spine
			{
				OFFSET 0.000000 10.199997 -0.299500
				CHANNELS 3 Xrotation Yrotation Zrotation
				JOINT Spine1
				{
					OFFSET 0.000000 11.900002 -1.516600
					CHANNELS 3 Xrotation Yrotation Zrotation
					JOINT Spine2
					{
						OFFSET 0.000000 13.600006 -2.842500
						CHANNELS 3 Xrotation Yrotation Zrotation
						JOINT Neck_virtual
						{
							OFFSET 0.000000 0.000000 0.000000
							CHANNELS 3 Xrotation Yrotation Zrotation
							JOINT Neck
							{
								OFFSET 0.000000 9.624100 -2.890100
								CHANNELS 3 Xrotation Yrotation Zrotation
								JOINT Head
								{
									OFFSET 0.000000 14.068802 -1.351900
									CHANNELS 3 Xrotation Yrotation Zrotation
									End Site
									{
										OFFSET 0 0 0
									}
								}
							}
						}
						JOINT LeftShoulder_virtual
						{
							OFFSET 0.000000 0.000000 0.000000
							CHANNELS 3 Xrotation Yrotation Zrotation
							JOINT LeftShoulder
							{
								OFFSET 15.263000 10.923401 -0.547700
								CHANNELS 3 Xrotation Yrotation Zrotation
								JOINT LeftArm
								{
									OFFSET 25.438599 -2.830597 -13.032500
									CHANNELS 3 Xrotation Yrotation Zrotation
									JOINT LeftForeArm
									{
										OFFSET 29.960503 0.000000 0.000000
										CHANNELS 3 Xrotation Yrotation Zrotation
										JOINT LeftHand
										{
											OFFSET 27.849251 0.000000 0.000000
											CHANNELS 3 Xrotation Yrotation Zrotation
											End Site
											{
												OFFSET 0 0 0
											}
										}
									}
								}
							}
						}
						JOINT RightShoulder_virtual
						{
							OFFSET 0.000000 0.000000 0.000000
							CHANNELS 3 Xrotation Yrotation Zrotation
							JOINT RightShoulder
							{
								OFFSET -15.263000 10.923401 -0.547700
								CHANNELS 3 Xrotation Yrotation Zrotation
								JOINT RightArm
								{
									OFFSET -25.438599 -2.830597 -13.032500
									CHANNELS 3 Xrotation Yrotation Zrotation
									JOINT RightForeArm
									{
										OFFSET -29.960503 0.000000 0.000000
										CHANNELS 3 Xrotation Yrotation Zrotation
										JOINT RightHand
										{
											OFFSET -27.849251 0.000000 0.000000
											CHANNELS 3 Xrotation Yrotation Zrotation
											End Site
											{
												OFFSET 0 0 0
											}
										}
									}
								}
							}
						}
					}
				}
			}
		}
	}
}
MOTION
Frames: 12
Frame Time: 0.03333333
-22.663242 93.014229 -15.811134 0.000000 0.000000 0.000000 -172.425776 -9.281495 -166.290968 -113.974383 -8.196048 21.125775 91.540572 -19.694284 -27.398812 35.273621 5.289209 -29.162015 0.000000 0.000000 0.000000 -171.527934 -9.593333 -165.910814 -54.956774 33.957272 16.799760 51.850923 11.329437 -1.716463 14.966599 5.317502 2.973509 0.000000 0.000000 0.000000 -172.388524 -12.476956 -166.294493 -1.012270 0.250540 -0.055397 24.927771 -6.113665 2.679901 -0.348332 -0.035080 6.549206 0.000000 0.000000 0.000000 3.318190 3.237432 3.923505 2.095575 4.143831 2.923908 0.000000 0.000000 0.000000 2.879356 2.991761 3.815275 -2.959458 -13.869427 7.679392 -40.695059 -16.391711 -47.498481 -120.634104 -35.899997 -106.831030 0.000000 0.000000 0.000000 -3.426169 4.894196 4.362028 -1.339964 27.763153 10.796144 -18.160525 24.392684 19.018317 108.649458 52.566744 -132.003405 0.000000 0.000000 0.000000 
-24.580742 93.029671 -17.009552 0.000000 0.000000 0.000000 -172.790563 -2.733256 -165.649982 -119.005965 -8.250644 22.624817 90.920131 -19.497945 -30.026884 29.259605 7.379575 -34.618203 0.000000 0.000000 0.000000 -172.054173 -2.657062 -165.305673 -56.334564 34.155686 18.330787 55.079318 11.855184 -2.309759 13.497004 5.097685 0.565979 0.000000 0.000000 0.000000 -172.701620 -5.764108 -165.554373 -0.987453 0.280628 -0.092363 24.994283 -5.834169 2.403416 0.177269 0.160725 6.102323 0.000000 0.000000 0.000000 4.212668 3.639002 3.517366 1.945645 4.842632 3.005262 0.000000 0.000000 0.000000 4.209522 3.439053 3.503728 -3.227928 -12.401966 12.384522 -48.635919 -14.261563 -49.843999 -122.609873 -36.415502 -108.154939 0.000000 0.000000 0.000000 -2.287477 5.426692 3.892362 -1.068391 28.028706 7.100026 -23.191868 23.652365 19.149159 111.536627 51.140222 -137.125610 0.000000 0.000000 0.000000 
-26.351002 93.077675 -18.159637 0.000000 0.000000 0.000000 -173.242202 2.267360 -164.684467 -123.729737 -8.730962 23.731310 91.170383 -19.270692 -32.276325 27.657260 10.074124 -37.169589 0.000000 0.000000 0.000000 -172.699530 2.740232 -164.488864 -56.495312 34.115313 18.633349 57.250909 12.049102 -2.790382 12.661433 5.723458 -0.991768 0.000000 0.000000 0.000000 -173.167644 -0.220426 -164.627367 -0.965200 0.273882 -0.098623 24.870059 -5.658456 2.065994 0.774961 0.174405 5.538650 0.000000 0.000000 0.000000 5.121106 3.845272 3.030375 1.830127 5.601812 3.066277 0.000000 0.000000 0.000000 5.495566 3.692366 3.123184 -3.685944 -10.995433 16.824877 -55.105495 -12.104400 -51.917897 -124.960114 -36.964670 -109.899171 0.000000 0.000000 0.000000 -1.050361 5.775471 3.258702 -0.849114 27.814417 3.502156 -27.859606 21.861163 18.627896 113.863932 50.114061 -141.236537 0.000000 0.000000 0.000000 
-27.908279 93.305031 -18.983696 0.000000 0.000000 0.000000 -173.780298 5.337301 -163.491656 -127.417015 -9.468136 23.496160 91.946600 -19.147754 -33.880563 29.380038 13.443049 -37.046383 0.000000 0.000000 0.000000 -173.397999 6.042819 -163.313224 -56.133831 34.533846 18.504070 58.910306 12.154022 -3.567626 12.984827 7.320171 -1.565639 0.000000 0.000000 0.000000 -173.736790 3.660327 -163.381007 -0.937322 0.236934 -0.085302 24.696557 -5.630109 1.726457 1.370279 -0.063806 4.890462 0.000000 0.000000 0.000000 5.976219 3.812970 2.507456 1.685672 6.405000 3.111359 0.000000 0.000000 0.000000 6.716496 3.680425 2.668113 -4.322070 -9.768914 20.755458 -59.980515 -10.616849 -53.306181 -127.707926 -37.470322 -112.170469 0.000000 0.000000 0.000000 0.211179 5.889129 2.507667 -0.713890 27.117750 0.228284 -32.204335 18.905164 17.925200 115.926123 49.407638 -144.656508 0.000000 0.000000 0.000000 
-29.202663 93.559448 -19.369522 0.000000 0.000000 0.000000 -174.451583 6.506332 -162.187691 -129.883752 -10.426269 22.311081 92.571166 -19.755462 -35.203683 31.029570 16.745165 -36.053884 0.000000 0.000000 0.000000 -174.100880 7.176275 -161.769219 -56.146388 35.658399 18.495310 60.930560 12.057531 -4.932666 14.440734 9.555985 -1.497268 0.000000 0.000000 0.000000 -174.351999 5.614894 -161.813274 -0.906114 0.180312 -0.063988 24.625301 -5.699138 1.505417 1.899344 -0.502247 4.195381 0.000000 0.000000 0.000000 6.730364 3.551195 1.987719 1.465568 7.237856 3.147954 0.000000 0.000000 0.000000 7.793661 3.394564 2.174160 -5.053318 -8.799062 23.918759 -63.330545 -10.239009 -54.036198 -130.451531 -37.999006 -114.597023 0.000000 0.000000 0.000000 1.446276 5.758298 1.719671 -0.682002 25.954215 -2.529467 -36.133487 14.934330 17.319715 117.947491 48.932855 -147.653622 0.000000 0.000000 0.000000 
-30.294567 93.778770 -19.436897 0.000000 0.000000 0.000000 -175.120641 5.849819 -160.953408 -131.473164 -11.679961 21.145506 93.160625 -21.410270 -36.555210 31.712077 19.032693 -35.534370 0.000000 0.000000 0.000000 -174.670299 6.301830 -160.128225 -56.900940 37.083850 18.912172 63.366349 11.503968 -6.550040 15.865710 11.804058 -1.423861 0.000000 0.000000 0.000000 -174.908495 5.454194 -160.204218 -0.890486 0.119601 -0.055488 24.672084 -5.788481 1.495469 2.319445 -1.017539 3.516013 0.000000 0.000000 0.000000 7.310507 3.133628 1.518369 1.152799 8.071168 3.173918 0.000000 0.000000 0.000000 8.665754 2.921391 1.715609 -5.800173 -8.033745 26.166202 -65.354979 -10.937354 -54.184266 -132.742705 -38.714219 -116.692102 0.000000 0.000000 0.000000 2.607602 5.445589 0.979123 -0.749136 24.470973 -4.518199 -39.542318 10.472475 16.598348 120.120133 48.650519 -150.422854 0.000000 0.000000 0.000000 
-30.960762 93.928154 -19.047119 0.000000 0.000000 0.000000 -175.695292 3.608820 -159.646451 -132.843751 -13.071618 21.727865 94.251023 -23.522963 -38.232080 33.250020 20.572470 -35.832166 0.000000 0.000000 0.000000 -175.027354 3.755019 -158.660486 -58.149826 38.214277 19.538724 65.687883 10.255232 -7.809368 15.584062 13.515130 -1.510656 0.000000 0.000000 0.000000 -175.347485 3.350612 -158.764291 -0.872061 0.077010 -0.046742 24.837802 -5.885944 1.674022 2.562308 -1.531127 2.918319 0.000000 0.000000 0.000000 7.681579 2.640839 1.127503 0.756518 8.860757 3.198441 0.000000 0.000000 0.000000 9.294351 2.379496 1.350829 -6.465812 -7.527567 27.543318 -66.481838 -12.270381 -53.961011 -134.340928 -39.673116 -118.147315 0.000000 0.000000 0.000000 3.550247 5.012713 0.359876 -0.924319 22.756512 -5.572066 -42.403659 6.298197 15.362018 122.617591 48.579010 -153.106244 0.000000 0.000000 0.000000 
-31.284340 93.941193 -18.452072 0.000000 0.000000 0.000000 -176.161630 0.255439 -158.449925 -133.803542 -14.455510 24.547235 95.410940 -25.547885 -40.169937 34.967003 22.301203 -36.430399 0.000000 0.000000 0.000000 -175.243065 0.023053 -157.560662 -59.583667 38.559816 19.789165 67.415074 8.352385 -8.489774 14.014926 14.474995 -1.910903 0.000000 0.000000 0.000000 -175.710605 -0.381794 -157.661311 -0.859970 0.048633 -0.054908 25.050339 -5.981495 1.925210 2.641618 -1.992827 2.406725 0.000000 0.000000 0.000000 7.811358 2.146753 0.840227 0.289054 9.566281 3.234838 0.000000 0.000000 0.000000 9.647263 1.846670 1.092769 -6.988062 -7.338037 28.177998 -67.368082 -13.726327 -53.499267 -135.562248 -40.714990 -119.215884 0.000000 0.000000 0.000000 4.268471 4.536514 -0.122301 -1.176217 20.859481 -5.739927 -44.875972 3.201514 13.487860 125.500286 48.730565 -155.766781 0.000000 0.000000 0.000000 
-31.263157 93.874222 -17.518211 0.000000 0.000000 0.000000 -176.565540 -4.010575 -157.779952 -133.777724 -15.644984 28.292717 95.467412 -27.449497 -42.073723 35.177892 23.674605 -37.340200 0.000000 0.000000 0.000000 -175.453572 -4.436144 -156.979699 -61.074117 38.647464 19.690353 67.985162 6.502011 -8.904596 13.204239 15.116674 -2.405270 0.000000 0.000000 0.000000 -176.019863 -5.252842 -157.069612 -0.859344 0.021954 -0.060126 25.222710 -6.083998 2.168549 2.562196 -2.385228 1.978028 0.000000 0.000000 0.000000 7.723595 1.710619 0.645477 -0.190601 10.134282 3.289205 0.000000 0.000000 0.000000 9.784559 1.364506 0.901206 -7.313161 -7.605913 28.336611 -68.601375 -14.899940 -52.850327 -136.710252 -41.657716 -120.176004 0.000000 0.000000 0.000000 4.793545 4.091156 -0.498663 -1.442305 18.789640 -5.247773 -47.111401 1.675095 11.196817 128.813529 49.027651 -158.484322 0.000000 0.000000 0.000000 
-30.878170 93.802811 -16.004242 0.000000 0.000000 0.000000 -177.108800 -8.640665 -157.726731 -132.622548 -16.420050 32.263765 93.970152 -29.457236 -44.026723 34.622198 23.371458 -38.768140 0.000000 0.000000 0.000000 -175.787158 -9.097370 -156.931219 -62.718922 38.908644 19.231489 67.428379 5.219862 -9.349193 14.100751 15.883053 -2.392685 0.000000 0.000000 0.000000 -176.393802 -10.373117 -157.033631 -0.842278 0.005204 -0.056870 25.293336 -6.177918 2.378503 2.340658 -2.693716 1.596792 0.000000 0.000000 0.000000 7.484429 1.357114 0.498493 -0.635067 10.525240 3.348440 0.000000 0.000000 0.000000 9.748758 0.940346 0.717256 -7.397267 -8.414131 28.284915 -70.426545 -15.702291 -52.330608 -137.732540 -42.523037 -120.909306 0.000000 0.000000 0.000000 5.113140 3.711829 -0.798694 -1.659240 16.529698 -4.409461 -48.898943 1.782256 9.298514 132.430811 49.324399 -161.232284 0.000000 0.000000 0.000000 
-30.267979 93.624794 -13.982338 0.000000 0.000000 0.000000 -177.879108 -13.023018 -158.436661 -130.780952 -16.448907 36.358975 91.889827 -31.732997 -45.911920 33.694751 20.809266 -40.278073 0.000000 0.000000 0.000000 -176.351209 -13.529490 -157.335019 -64.276021 39.252677 18.097635 65.909481 4.621319 -9.684928 16.420570 16.850809 -1.502162 0.000000 0.000000 0.000000 -176.905315 -15.168187 -157.562998 -0.816979 -0.005917 -0.064868 25.218845 -6.220891 2.591679 1.975291 -2.880454 1.239146 0.000000 0.000000 0.000000 7.173168 1.103927 0.357814 -0.968963 10.733583 3.375158 0.000000 0.000000 0.000000 9.556381 0.601941 0.494061 -7.241723 -9.725187 28.193426 -72.407833 -16.116518 -52.216895 -138.440913 -43.498408 -121.228413 0.000000 0.000000 0.000000 5.283640 3.438458 -1.060053 -1.741808 14.210616 -3.570373 -49.922283 2.988204 8.362779 136.119072 49.493590 -163.898326 0.000000 0.000000 0.000000 
-29.310478 93.236557 -11.627979 0.000000 0.000000 0.000000 -178.830868 -16.975079 -159.639484 -129.067831 -15.948582 40.074810 91.292602 -34.217810 -46.715362 32.741041 16.508104 -40.683370 0.000000 0.000000 0.000000 -177.142691 -17.301965 -158.148918 -64.947982 39.542619 16.057862 63.145980 4.507603 -9.631601 18.377158 17.718569 -0.072557 0.000000 0.000000 0.000000 -177.628700 -19.143897 -158.672603 -0.793954 -0.007440 -0.087018 24.934015 -6.233145 2.844421 1.489656 -2.915901 0.924411 0.000000 0.000000 0.000000 6.848298 0.952469 0.197852 -1.137965 10.752716 3.331230 0.000000 0.000000 0.000000 9.246868 0.377370 0.255849 -6.866449 -11.483016 28.112978 -73.782169 -16.292783 -52.733118 -138.552245 -44.862947 -120.874240 0.000000 0.000000 0.000000 5.295116 3.283382 -1.295344 -1.672210 12.033878 -2.948799 -50.120789 4.669688 8.868069 139.520698 49.616465 -166.217899 0.000000 0.000000 0.000000 
